<svg width="24" height="24" viewBox="0 0 24 24" fill="none" xmlns="http://www.w3.org/2000/svg">
<path d="M22.125 4.5H18V1.875H16.5V4.5H7.5V1.875H6V4.5H1.875C1.57679 4.50053 1.29095 4.61923 1.08009 4.83009C0.869225 5.04095 0.750529 5.32679 0.75 5.625V21.375C0.750529 21.6732 0.869225 21.959 1.08009 22.1699C1.29095 22.3808 1.57679 22.4995 1.875 22.5H22.125C22.4232 22.4995 22.709 22.3808 22.9199 22.1699C23.1308 21.959 23.2495 21.6732 23.25 21.375V5.625C23.2495 5.32679 23.1308 5.04095 22.9199 4.83009C22.709 4.61923 22.4232 4.50053 22.125 4.5ZM21.75 21H2.25V6H6V7.875H7.5V6H16.5V7.875H18V6H21.75V21Z" fill="white"/>
<path d="M5.25 10.5H6.75V12H5.25V10.5Z" fill="white"/>
<path d="M9.375 10.5H10.875V12H9.375V10.5Z" fill="white"/>
<path d="M13.125 10.5H14.625V12H13.125V10.5Z" fill="white"/>
<path d="M17.25 10.5H18.75V12H17.25V10.5Z" fill="white"/>
<path d="M5.25 13.875H6.75V15.375H5.25V13.875Z" fill="white"/>
<path d="M9.375 13.875H10.875V15.375H9.375V13.875Z" fill="white"/>
<path d="M1 12H2.5V13.5H1V12Z" fill="white"/>
<path d="M17.25 13.875H18.75V15.375H17.25V13.875Z" fill="white"/>
<path d="M5.25 17.25H6.75V18.75H5.25V17.25Z" fill="white"/>
<path d="M9.375 17.25H10.875V18.75H9.375V17.25Z" fill="white"/>
<path d="M13.125 17.25H14.625V18.75H13.125V17.25Z" fill="white"/>
<path d="M17.25 17.25H18.75V18.75H17.25V17.25Z" fill="white"/>
</svg>
