<svg width="32" height="32" viewBox="0 0 32 32" fill="none" xmlns="http://www.w3.org/2000/svg">
<path d="M11.9998 21.3333H12.0132M11.9998 6.66667H9.33317C8.62593 6.66667 7.94765 6.94762 7.44755 7.44771C6.94746 7.94781 6.6665 8.62609 6.6665 9.33333V25.3333C6.6665 26.0406 6.94746 26.7189 7.44755 27.2189C7.94765 27.719 8.62593 28 9.33317 28H22.6665C23.3737 28 24.052 27.719 24.5521 27.2189C25.0522 26.7189 25.3332 26.0406 25.3332 25.3333V9.33333C25.3332 8.62609 25.0522 7.94781 24.5521 7.44771C24.052 6.94762 23.3737 6.66667 22.6665 6.66667H19.9998H11.9998ZM11.9998 6.66667C11.9998 7.37391 12.2808 8.05219 12.7809 8.55228C13.281 9.05238 13.9593 9.33333 14.6665 9.33333H17.3332C18.0404 9.33333 18.7187 9.05238 19.2188 8.55228C19.7189 8.05219 19.9998 7.37391 19.9998 6.66667H11.9998ZM11.9998 6.66667C11.9998 5.95942 12.2808 5.28115 12.7809 4.78105C13.281 4.28095 13.9593 4 14.6665 4H17.3332C18.0404 4 18.7187 4.28095 19.2188 4.78105C19.7189 5.28115 19.9998 5.95942 19.9998 6.66667H11.9998ZM15.9998 16H19.9998H15.9998ZM15.9998 21.3333H19.9998H15.9998ZM11.9998 16H12.0132H11.9998Z" stroke="#FDFFFC" stroke-width="2" stroke-linecap="round" stroke-linejoin="round"/>
</svg>
