<svg width="32" height="32" viewBox="0 0 32 32" fill="none" xmlns="http://www.w3.org/2000/svg">
<g clip-path="url(#clip0)">
<path d="M2 8H30V28C30 29.0609 29.5786 30.0783 28.8284 30.8284C28.0783 31.5786 27.0609 32 26 32H6C4.93913 32 3.92172 31.5786 3.17157 30.8284C2.42143 30.0783 2 29.0609 2 28V8ZM16 3C14.6739 3 13.4021 3.52678 12.4645 4.46447C11.5268 5.40215 11 6.67392 11 8H9C9 6.14349 9.7375 4.36301 11.0503 3.05025C12.363 1.7375 14.1435 1 16 1C17.8565 1 19.637 1.7375 20.9497 3.05025C22.2625 4.36301 23 6.14349 23 8H21C21 6.67392 20.4732 5.40215 19.5355 4.46447C18.5979 3.52678 17.3261 3 16 3Z" fill="#FDFFFC"/>
</g>
<defs>
<clipPath id="clip0">
<rect width="32" height="32" fill="white"/>
</clipPath>
</defs>
</svg>
