<svg width="32" height="33" viewBox="0 0 32 33" fill="none" xmlns="http://www.w3.org/2000/svg">
<g clip-path="url(#clip0)">
<path d="M25.3609 16.192C28.9714 16.192 31.8983 14.4253 31.8983 12.246C31.8983 10.0667 28.9714 8.30002 25.3609 8.30002C21.7504 8.30002 18.8235 10.0667 18.8235 12.246C18.8235 14.4253 21.7504 16.192 25.3609 16.192Z" fill="#FDFFFC"/>
<path fill-rule="evenodd" clip-rule="evenodd" d="M25.4588 18.462C20.783 18.462 18.9214 16.38 18.9214 15.174V20.34C18.9214 22.52 21.8484 24.284 25.4588 24.284C29.0729 24.284 32 22.52 32 20.34V15.298C32 16.506 30.1364 18.462 25.4588 18.462Z" fill="#FDFFFC"/>
<path fill-rule="evenodd" clip-rule="evenodd" d="M25.4588 26.444C21.2762 26.444 18.9214 24.442 18.9214 23.236V28.354C18.9214 30.534 21.8484 32.3 25.4588 32.3C29.0729 32.3 32 30.534 32 28.354V23.174C32 24.38 29.6433 26.444 25.4588 26.444Z" fill="#FDFFFC"/>
<path d="M9.29315 8.19202C13.386 8.19202 16.704 6.42533 16.704 4.24602C16.704 2.0667 13.386 0.300018 9.29315 0.300018C5.20026 0.300018 1.88232 2.0667 1.88232 4.24602C1.88232 6.42533 5.20026 8.19202 9.29315 8.19202Z" fill="#FDFFFC"/>
<path fill-rule="evenodd" clip-rule="evenodd" d="M9.52838 10.462C4.22955 10.462 2.11755 8.38001 2.11755 7.17401V12.34C2.11755 14.52 5.43614 16.284 9.52838 16.284C13.6244 16.284 16.9411 14.52 16.9411 12.34V7.29801C16.9411 8.50601 14.8272 10.462 9.52838 10.462Z" fill="#FDFFFC"/>
<path fill-rule="evenodd" clip-rule="evenodd" d="M9.52838 18.444C4.78673 18.444 2.11755 16.442 2.11755 15.236V20.354C2.11755 22.534 5.43614 24.3 9.52838 24.3C13.6244 24.3 16.9411 22.534 16.9411 20.354V15.174C16.9411 16.38 14.2681 18.444 9.52838 18.444Z" fill="#FDFFFC"/>
<path fill-rule="evenodd" clip-rule="evenodd" d="M9.52838 26.444C4.78673 26.444 2.11755 24.442 2.11755 23.236V28.354C2.11755 30.534 5.43614 32.3 9.52838 32.3C13.6244 32.3 16.9411 30.534 16.9411 28.354V23.174C16.9411 24.38 14.2681 26.444 9.52838 26.444Z" fill="#FDFFFC"/>
</g>
<defs>
<clipPath id="clip0">
<rect y="0.300018" width="32" height="32" fill="white"/>
</clipPath>
</defs>
</svg>
