<svg width="36" height="36" viewBox="0 0 36 36" fill="none" xmlns="http://www.w3.org/2000/svg">
<path d="M34.875 29.25C34.875 32.3438 32.3438 34.875 29.25 34.875H6.75C3.65625 34.875 1.125 32.3438 1.125 29.25V6.75C1.125 3.65625 3.65625 1.125 6.75 1.125H29.25C32.3438 1.125 34.875 3.65625 34.875 6.75V29.25Z" fill="#1D52A8"/>
<path d="M24.1875 14.2312C24.1875 11.3625 21.825 9.05625 18.9 9.05625L11.8125 9V27H18.9C21.825 27 24.1875 24.6937 24.1875 21.825C24.1875 20.3625 23.5688 19.0125 22.5 18.0562C23.5688 17.0437 24.1875 15.6937 24.1875 14.2312ZM18.9 24.1313H14.5687V19.4062H18.9C20.25 19.4062 21.3188 20.475 21.3188 21.7688C21.3188 23.0625 20.25 24.1313 18.9 24.1313ZM18.9 16.5938H14.5687V11.8688H18.9C20.25 11.8688 21.3188 12.9375 21.3188 14.2312C21.3188 15.525 20.25 16.5938 18.9 16.5938Z" fill="white"/>
</svg>
